<mxfile host="65bd71144e">
    <diagram id="DuqZ44cJQPSX-Nn0656p" name="Page-1">
        <mxGraphModel dx="1167" dy="516" grid="1" gridSize="10" guides="1" tooltips="1" connect="1" arrows="1" fold="1" page="1" pageScale="1" pageWidth="850" pageHeight="1100" math="0" shadow="0">
            <root>
                <mxCell id="0"/>
                <mxCell id="1" parent="0"/>
                <mxCell id="12" value="Тип" style="ellipse;whiteSpace=wrap;html=1;fontSize=10;" parent="1" vertex="1">
                    <mxGeometry x="600" y="780" width="80" height="40" as="geometry"/>
                </mxCell>
                <mxCell id="16" value="" style="endArrow=none;html=1;fontSize=10;entryX=0;entryY=0.5;entryDx=0;entryDy=0;" parent="1" target="12" edge="1">
                    <mxGeometry width="50" height="50" relative="1" as="geometry">
                        <mxPoint x="590" y="800" as="sourcePoint"/>
                        <mxPoint x="570" y="855" as="targetPoint"/>
                    </mxGeometry>
                </mxCell>
                <mxCell id="18" value="" style="endArrow=none;html=1;fontSize=10;entryX=0;entryY=0.5;entryDx=0;entryDy=0;" parent="1" target="93" edge="1">
                    <mxGeometry width="50" height="50" relative="1" as="geometry">
                        <mxPoint x="590" y="900" as="sourcePoint"/>
                        <mxPoint x="600" y="895" as="targetPoint"/>
                        <Array as="points">
                            <mxPoint x="590" y="900"/>
                        </Array>
                    </mxGeometry>
                </mxCell>
                <mxCell id="76" value="Пользователь" style="rounded=1;arcSize=10;whiteSpace=wrap;html=1;align=center;fontSize=10;" parent="1" vertex="1">
                    <mxGeometry x="580" y="680" width="100" height="40" as="geometry"/>
                </mxCell>
                <mxCell id="80" value="ID" style="ellipse;whiteSpace=wrap;html=1;align=center;fontStyle=4;fontSize=10;" parent="1" vertex="1">
                    <mxGeometry x="600" y="730" width="80" height="40" as="geometry"/>
                </mxCell>
                <mxCell id="81" value="" style="line;strokeWidth=1;rotatable=0;dashed=0;labelPosition=right;align=left;verticalAlign=middle;spacingTop=0;spacingLeft=6;points=[];portConstraint=eastwest;fontSize=10;" parent="1" vertex="1">
                    <mxGeometry x="590" y="745" width="10" height="10" as="geometry"/>
                </mxCell>
                <mxCell id="87" value="" style="endArrow=none;html=1;rounded=0;fontSize=10;exitX=0.1;exitY=1;exitDx=0;exitDy=0;exitPerimeter=0;" parent="1" source="76" edge="1">
                    <mxGeometry relative="1" as="geometry">
                        <mxPoint x="540" y="800" as="sourcePoint"/>
                        <mxPoint x="590" y="950" as="targetPoint"/>
                    </mxGeometry>
                </mxCell>
                <mxCell id="91" value="ФИО/Компания" style="ellipse;whiteSpace=wrap;html=1;fontSize=10;" parent="1" vertex="1">
                    <mxGeometry x="600" y="830" width="80" height="40" as="geometry"/>
                </mxCell>
                <mxCell id="92" value="" style="endArrow=none;html=1;fontSize=10;entryX=0;entryY=0.5;entryDx=0;entryDy=0;" parent="1" target="91" edge="1">
                    <mxGeometry width="50" height="50" relative="1" as="geometry">
                        <mxPoint x="590" y="850" as="sourcePoint"/>
                        <mxPoint x="580" y="865" as="targetPoint"/>
                    </mxGeometry>
                </mxCell>
                <mxCell id="93" value="Номер телефона" style="ellipse;whiteSpace=wrap;html=1;fontSize=10;" parent="1" vertex="1">
                    <mxGeometry x="600" y="880" width="80" height="40" as="geometry"/>
                </mxCell>
                <mxCell id="98" value="" style="endArrow=none;html=1;fontSize=10;entryX=0;entryY=0.5;entryDx=0;entryDy=0;" parent="1" target="99" edge="1">
                    <mxGeometry width="50" height="50" relative="1" as="geometry">
                        <mxPoint x="590" y="950" as="sourcePoint"/>
                        <mxPoint x="600" y="945" as="targetPoint"/>
                        <Array as="points">
                            <mxPoint x="590" y="950"/>
                        </Array>
                    </mxGeometry>
                </mxCell>
                <mxCell id="99" value="Email" style="ellipse;whiteSpace=wrap;html=1;fontSize=10;" parent="1" vertex="1">
                    <mxGeometry x="600" y="930" width="80" height="40" as="geometry"/>
                </mxCell>
                <mxCell id="112" value="Регион" style="ellipse;whiteSpace=wrap;html=1;fontSize=10;" parent="1" vertex="1">
                    <mxGeometry x="1279" y="120" width="80" height="40" as="geometry"/>
                </mxCell>
                <mxCell id="113" value="" style="endArrow=none;html=1;fontSize=10;entryX=0;entryY=0.5;entryDx=0;entryDy=0;" parent="1" target="112" edge="1">
                    <mxGeometry width="50" height="50" relative="1" as="geometry">
                        <mxPoint x="1269" y="140" as="sourcePoint"/>
                        <mxPoint x="1249" y="195" as="targetPoint"/>
                    </mxGeometry>
                </mxCell>
                <mxCell id="114" value="" style="endArrow=none;html=1;fontSize=10;entryX=0;entryY=0.5;entryDx=0;entryDy=0;" parent="1" target="121" edge="1">
                    <mxGeometry width="50" height="50" relative="1" as="geometry">
                        <mxPoint x="1269" y="240" as="sourcePoint"/>
                        <mxPoint x="1279" y="235" as="targetPoint"/>
                        <Array as="points">
                            <mxPoint x="1269" y="240"/>
                        </Array>
                    </mxGeometry>
                </mxCell>
                <mxCell id="115" value="Адрес" style="rounded=1;arcSize=10;whiteSpace=wrap;html=1;align=center;fontSize=10;" parent="1" vertex="1">
                    <mxGeometry x="1260" y="20" width="100" height="40" as="geometry"/>
                </mxCell>
                <mxCell id="116" value="ID" style="ellipse;whiteSpace=wrap;html=1;align=center;fontStyle=4;fontSize=10;" parent="1" vertex="1">
                    <mxGeometry x="1279" y="70" width="80" height="40" as="geometry"/>
                </mxCell>
                <mxCell id="117" value="" style="line;strokeWidth=1;rotatable=0;dashed=0;labelPosition=right;align=left;verticalAlign=middle;spacingTop=0;spacingLeft=6;points=[];portConstraint=eastwest;fontSize=10;" parent="1" vertex="1">
                    <mxGeometry x="1269" y="85" width="10" height="10" as="geometry"/>
                </mxCell>
                <mxCell id="118" value="" style="endArrow=none;html=1;rounded=0;fontSize=10;exitX=0.1;exitY=1;exitDx=0;exitDy=0;exitPerimeter=0;" parent="1" source="115" edge="1">
                    <mxGeometry relative="1" as="geometry">
                        <mxPoint x="1219" y="140" as="sourcePoint"/>
                        <mxPoint x="1269" y="390" as="targetPoint"/>
                    </mxGeometry>
                </mxCell>
                <mxCell id="119" value="Город" style="ellipse;whiteSpace=wrap;html=1;fontSize=10;" parent="1" vertex="1">
                    <mxGeometry x="1279" y="170" width="80" height="40" as="geometry"/>
                </mxCell>
                <mxCell id="120" value="" style="endArrow=none;html=1;fontSize=10;entryX=0;entryY=0.5;entryDx=0;entryDy=0;" parent="1" target="119" edge="1">
                    <mxGeometry width="50" height="50" relative="1" as="geometry">
                        <mxPoint x="1269" y="190" as="sourcePoint"/>
                        <mxPoint x="1259" y="205" as="targetPoint"/>
                    </mxGeometry>
                </mxCell>
                <mxCell id="121" value="Улица" style="ellipse;whiteSpace=wrap;html=1;fontSize=10;" parent="1" vertex="1">
                    <mxGeometry x="1279" y="220" width="80" height="40" as="geometry"/>
                </mxCell>
                <mxCell id="122" value="" style="endArrow=none;html=1;fontSize=10;entryX=0;entryY=0.5;entryDx=0;entryDy=0;" parent="1" target="123" edge="1">
                    <mxGeometry width="50" height="50" relative="1" as="geometry">
                        <mxPoint x="1269" y="290" as="sourcePoint"/>
                        <mxPoint x="1279" y="285" as="targetPoint"/>
                        <Array as="points">
                            <mxPoint x="1269" y="290"/>
                        </Array>
                    </mxGeometry>
                </mxCell>
                <mxCell id="123" value="Дом" style="ellipse;whiteSpace=wrap;html=1;fontSize=10;" parent="1" vertex="1">
                    <mxGeometry x="1279" y="270" width="80" height="40" as="geometry"/>
                </mxCell>
                <mxCell id="124" value="" style="endArrow=none;html=1;fontSize=10;entryX=0;entryY=0.5;entryDx=0;entryDy=0;" parent="1" target="125" edge="1">
                    <mxGeometry width="50" height="50" relative="1" as="geometry">
                        <mxPoint x="1269" y="340" as="sourcePoint"/>
                        <mxPoint x="1279" y="335" as="targetPoint"/>
                        <Array as="points">
                            <mxPoint x="1269" y="340"/>
                        </Array>
                    </mxGeometry>
                </mxCell>
                <mxCell id="125" value="Квартира&lt;br&gt;Офис" style="ellipse;whiteSpace=wrap;html=1;fontSize=10;" parent="1" vertex="1">
                    <mxGeometry x="1279" y="320" width="80" height="40" as="geometry"/>
                </mxCell>
                <mxCell id="126" value="" style="endArrow=none;html=1;fontSize=10;entryX=0;entryY=0.5;entryDx=0;entryDy=0;" parent="1" target="127" edge="1">
                    <mxGeometry width="50" height="50" relative="1" as="geometry">
                        <mxPoint x="1269" y="390" as="sourcePoint"/>
                        <mxPoint x="1279" y="385" as="targetPoint"/>
                        <Array as="points">
                            <mxPoint x="1269" y="390"/>
                        </Array>
                    </mxGeometry>
                </mxCell>
                <mxCell id="127" value="Тип" style="ellipse;whiteSpace=wrap;html=1;fontSize=10;" parent="1" vertex="1">
                    <mxGeometry x="1279" y="370" width="80" height="40" as="geometry"/>
                </mxCell>
                <mxCell id="132" value="Отправитель" style="ellipse;whiteSpace=wrap;html=1;fontSize=10;" parent="1" vertex="1">
                    <mxGeometry x="940" y="580" width="80" height="40" as="geometry"/>
                </mxCell>
                <mxCell id="133" value="" style="endArrow=none;html=1;fontSize=10;entryX=0;entryY=0.5;entryDx=0;entryDy=0;" parent="1" target="132" edge="1">
                    <mxGeometry width="50" height="50" relative="1" as="geometry">
                        <mxPoint x="930" y="600" as="sourcePoint"/>
                        <mxPoint x="910" y="655" as="targetPoint"/>
                    </mxGeometry>
                </mxCell>
                <mxCell id="134" value="" style="endArrow=none;html=1;fontSize=10;entryX=0;entryY=0.5;entryDx=0;entryDy=0;" parent="1" target="141" edge="1">
                    <mxGeometry width="50" height="50" relative="1" as="geometry">
                        <mxPoint x="930" y="700" as="sourcePoint"/>
                        <mxPoint x="940" y="695" as="targetPoint"/>
                        <Array as="points">
                            <mxPoint x="930" y="700"/>
                        </Array>
                    </mxGeometry>
                </mxCell>
                <mxCell id="135" value="Заказ" style="rounded=1;arcSize=10;whiteSpace=wrap;html=1;align=center;fontSize=10;" parent="1" vertex="1">
                    <mxGeometry x="920" y="480" width="100" height="40" as="geometry"/>
                </mxCell>
                <mxCell id="136" value="ID" style="ellipse;whiteSpace=wrap;html=1;align=center;fontStyle=4;fontSize=10;" parent="1" vertex="1">
                    <mxGeometry x="940" y="530" width="80" height="40" as="geometry"/>
                </mxCell>
                <mxCell id="137" value="" style="line;strokeWidth=1;rotatable=0;dashed=0;labelPosition=right;align=left;verticalAlign=middle;spacingTop=0;spacingLeft=6;points=[];portConstraint=eastwest;fontSize=10;" parent="1" vertex="1">
                    <mxGeometry x="930" y="545" width="10" height="10" as="geometry"/>
                </mxCell>
                <mxCell id="138" value="" style="endArrow=none;html=1;rounded=0;fontSize=10;exitX=0.1;exitY=1;exitDx=0;exitDy=0;exitPerimeter=0;" parent="1" source="135" edge="1">
                    <mxGeometry relative="1" as="geometry">
                        <mxPoint x="880" y="600" as="sourcePoint"/>
                        <mxPoint x="930" y="950" as="targetPoint"/>
                    </mxGeometry>
                </mxCell>
                <mxCell id="139" value="Получатель" style="ellipse;whiteSpace=wrap;html=1;fontSize=10;" parent="1" vertex="1">
                    <mxGeometry x="940" y="630" width="80" height="40" as="geometry"/>
                </mxCell>
                <mxCell id="140" value="" style="endArrow=none;html=1;fontSize=10;entryX=0;entryY=0.5;entryDx=0;entryDy=0;" parent="1" target="139" edge="1">
                    <mxGeometry width="50" height="50" relative="1" as="geometry">
                        <mxPoint x="930" y="650" as="sourcePoint"/>
                        <mxPoint x="920" y="665" as="targetPoint"/>
                    </mxGeometry>
                </mxCell>
                <mxCell id="141" value="Адрес отправления" style="ellipse;whiteSpace=wrap;html=1;fontSize=10;" parent="1" vertex="1">
                    <mxGeometry x="940" y="680" width="80" height="40" as="geometry"/>
                </mxCell>
                <mxCell id="142" value="" style="endArrow=none;html=1;fontSize=10;entryX=0;entryY=0.5;entryDx=0;entryDy=0;" parent="1" target="143" edge="1">
                    <mxGeometry width="50" height="50" relative="1" as="geometry">
                        <mxPoint x="930" y="750" as="sourcePoint"/>
                        <mxPoint x="940" y="745" as="targetPoint"/>
                        <Array as="points">
                            <mxPoint x="930" y="750"/>
                        </Array>
                    </mxGeometry>
                </mxCell>
                <mxCell id="143" value="Адрес получения" style="ellipse;whiteSpace=wrap;html=1;fontSize=10;" parent="1" vertex="1">
                    <mxGeometry x="940" y="730" width="80" height="40" as="geometry"/>
                </mxCell>
                <mxCell id="144" value="" style="endArrow=none;html=1;fontSize=10;entryX=0;entryY=0.5;entryDx=0;entryDy=0;" parent="1" target="145" edge="1">
                    <mxGeometry width="50" height="50" relative="1" as="geometry">
                        <mxPoint x="930" y="800" as="sourcePoint"/>
                        <mxPoint x="940" y="795" as="targetPoint"/>
                        <Array as="points">
                            <mxPoint x="930" y="800"/>
                        </Array>
                    </mxGeometry>
                </mxCell>
                <mxCell id="145" value="Стоимость доставки" style="ellipse;whiteSpace=wrap;html=1;fontSize=10;" parent="1" vertex="1">
                    <mxGeometry x="940" y="780" width="80" height="40" as="geometry"/>
                </mxCell>
                <mxCell id="148" value="" style="endArrow=none;html=1;fontSize=10;entryX=0;entryY=0.5;entryDx=0;entryDy=0;" parent="1" target="149" edge="1">
                    <mxGeometry width="50" height="50" relative="1" as="geometry">
                        <mxPoint x="930" y="850" as="sourcePoint"/>
                        <mxPoint x="940" y="845" as="targetPoint"/>
                        <Array as="points">
                            <mxPoint x="930" y="850"/>
                        </Array>
                    </mxGeometry>
                </mxCell>
                <mxCell id="149" value="Дата создания" style="ellipse;whiteSpace=wrap;html=1;fontSize=10;" parent="1" vertex="1">
                    <mxGeometry x="940" y="830" width="80" height="40" as="geometry"/>
                </mxCell>
                <mxCell id="150" value="ID заказа" style="ellipse;whiteSpace=wrap;html=1;fontSize=10;" parent="1" vertex="1">
                    <mxGeometry x="1280" y="780" width="80" height="40" as="geometry"/>
                </mxCell>
                <mxCell id="151" value="" style="endArrow=none;html=1;fontSize=10;entryX=0;entryY=0.5;entryDx=0;entryDy=0;" parent="1" target="150" edge="1">
                    <mxGeometry width="50" height="50" relative="1" as="geometry">
                        <mxPoint x="1270" y="800" as="sourcePoint"/>
                        <mxPoint x="1250" y="855" as="targetPoint"/>
                    </mxGeometry>
                </mxCell>
                <mxCell id="152" value="" style="endArrow=none;html=1;fontSize=10;entryX=0;entryY=0.5;entryDx=0;entryDy=0;" parent="1" target="159" edge="1">
                    <mxGeometry width="50" height="50" relative="1" as="geometry">
                        <mxPoint x="1270" y="900" as="sourcePoint"/>
                        <mxPoint x="1280" y="895" as="targetPoint"/>
                        <Array as="points">
                            <mxPoint x="1270" y="900"/>
                        </Array>
                    </mxGeometry>
                </mxCell>
                <mxCell id="154" value="ID" style="ellipse;whiteSpace=wrap;html=1;align=center;fontStyle=4;fontSize=10;" parent="1" vertex="1">
                    <mxGeometry x="1280" y="730" width="80" height="40" as="geometry"/>
                </mxCell>
                <mxCell id="155" value="" style="line;strokeWidth=1;rotatable=0;dashed=0;labelPosition=right;align=left;verticalAlign=middle;spacingTop=0;spacingLeft=6;points=[];portConstraint=eastwest;fontSize=10;" parent="1" vertex="1">
                    <mxGeometry x="1270" y="745" width="10" height="10" as="geometry"/>
                </mxCell>
                <mxCell id="156" value="" style="endArrow=none;html=1;rounded=0;fontSize=10;exitX=0.092;exitY=1.006;exitDx=0;exitDy=0;exitPerimeter=0;" parent="1" source="252" edge="1">
                    <mxGeometry relative="1" as="geometry">
                        <mxPoint x="1270" y="720" as="sourcePoint"/>
                        <mxPoint x="1270" y="900" as="targetPoint"/>
                    </mxGeometry>
                </mxCell>
                <mxCell id="157" value="Название" style="ellipse;whiteSpace=wrap;html=1;fontSize=10;" parent="1" vertex="1">
                    <mxGeometry x="1280" y="830" width="80" height="40" as="geometry"/>
                </mxCell>
                <mxCell id="158" value="" style="endArrow=none;html=1;fontSize=10;entryX=0;entryY=0.5;entryDx=0;entryDy=0;" parent="1" target="157" edge="1">
                    <mxGeometry width="50" height="50" relative="1" as="geometry">
                        <mxPoint x="1270" y="850" as="sourcePoint"/>
                        <mxPoint x="1260" y="865" as="targetPoint"/>
                    </mxGeometry>
                </mxCell>
                <mxCell id="159" value="Количество" style="ellipse;whiteSpace=wrap;html=1;fontSize=10;" parent="1" vertex="1">
                    <mxGeometry x="1280" y="880" width="80" height="40" as="geometry"/>
                </mxCell>
                <mxCell id="166" value="" style="endArrow=none;html=1;fontSize=10;entryX=0;entryY=0.5;entryDx=0;entryDy=0;" parent="1" target="167" edge="1">
                    <mxGeometry width="50" height="50" relative="1" as="geometry">
                        <mxPoint x="930.0000000000002" y="900" as="sourcePoint"/>
                        <mxPoint x="940" y="895" as="targetPoint"/>
                        <Array as="points">
                            <mxPoint x="930" y="900"/>
                        </Array>
                    </mxGeometry>
                </mxCell>
                <mxCell id="167" value="Дата доставки" style="ellipse;whiteSpace=wrap;html=1;fontSize=10;" parent="1" vertex="1">
                    <mxGeometry x="940" y="880" width="80" height="40" as="geometry"/>
                </mxCell>
                <mxCell id="168" value="Фамилия" style="ellipse;whiteSpace=wrap;html=1;fontSize=10;" parent="1" vertex="1">
                    <mxGeometry x="270" y="505" width="80" height="40" as="geometry"/>
                </mxCell>
                <mxCell id="169" value="" style="endArrow=none;html=1;fontSize=10;entryX=0;entryY=0.5;entryDx=0;entryDy=0;" parent="1" target="168" edge="1">
                    <mxGeometry width="50" height="50" relative="1" as="geometry">
                        <mxPoint x="260" y="525" as="sourcePoint"/>
                        <mxPoint x="240" y="580" as="targetPoint"/>
                    </mxGeometry>
                </mxCell>
                <mxCell id="170" value="" style="endArrow=none;html=1;fontSize=10;entryX=0;entryY=0.5;entryDx=0;entryDy=0;" parent="1" target="177" edge="1">
                    <mxGeometry width="50" height="50" relative="1" as="geometry">
                        <mxPoint x="260" y="625" as="sourcePoint"/>
                        <mxPoint x="270" y="620" as="targetPoint"/>
                        <Array as="points">
                            <mxPoint x="260" y="625"/>
                        </Array>
                    </mxGeometry>
                </mxCell>
                <mxCell id="171" value="Курьер" style="rounded=1;arcSize=10;whiteSpace=wrap;html=1;align=center;fontSize=10;" parent="1" vertex="1">
                    <mxGeometry x="250" y="405" width="100" height="40" as="geometry"/>
                </mxCell>
                <mxCell id="172" value="ID" style="ellipse;whiteSpace=wrap;html=1;align=center;fontStyle=4;fontSize=10;" parent="1" vertex="1">
                    <mxGeometry x="270" y="455" width="80" height="40" as="geometry"/>
                </mxCell>
                <mxCell id="173" value="" style="line;strokeWidth=1;rotatable=0;dashed=0;labelPosition=right;align=left;verticalAlign=middle;spacingTop=0;spacingLeft=6;points=[];portConstraint=eastwest;fontSize=10;" parent="1" vertex="1">
                    <mxGeometry x="260" y="470" width="10" height="10" as="geometry"/>
                </mxCell>
                <mxCell id="174" value="" style="endArrow=none;html=1;rounded=0;fontSize=10;exitX=0.1;exitY=1;exitDx=0;exitDy=0;exitPerimeter=0;" parent="1" source="171" edge="1">
                    <mxGeometry relative="1" as="geometry">
                        <mxPoint x="210" y="525" as="sourcePoint"/>
                        <mxPoint x="260" y="725" as="targetPoint"/>
                    </mxGeometry>
                </mxCell>
                <mxCell id="175" value="Имя" style="ellipse;whiteSpace=wrap;html=1;fontSize=10;" parent="1" vertex="1">
                    <mxGeometry x="270" y="555" width="80" height="40" as="geometry"/>
                </mxCell>
                <mxCell id="176" value="" style="endArrow=none;html=1;fontSize=10;entryX=0;entryY=0.5;entryDx=0;entryDy=0;" parent="1" target="175" edge="1">
                    <mxGeometry width="50" height="50" relative="1" as="geometry">
                        <mxPoint x="260" y="575" as="sourcePoint"/>
                        <mxPoint x="250" y="590" as="targetPoint"/>
                    </mxGeometry>
                </mxCell>
                <mxCell id="177" value="Отчество" style="ellipse;whiteSpace=wrap;html=1;fontSize=10;" parent="1" vertex="1">
                    <mxGeometry x="270" y="605" width="80" height="40" as="geometry"/>
                </mxCell>
                <mxCell id="178" value="" style="endArrow=none;html=1;fontSize=10;entryX=0;entryY=0.5;entryDx=0;entryDy=0;" parent="1" target="179" edge="1">
                    <mxGeometry width="50" height="50" relative="1" as="geometry">
                        <mxPoint x="260" y="675" as="sourcePoint"/>
                        <mxPoint x="270" y="670" as="targetPoint"/>
                        <Array as="points">
                            <mxPoint x="260" y="675"/>
                        </Array>
                    </mxGeometry>
                </mxCell>
                <mxCell id="179" value="Номер телефона" style="ellipse;whiteSpace=wrap;html=1;fontSize=10;" parent="1" vertex="1">
                    <mxGeometry x="270" y="655" width="80" height="40" as="geometry"/>
                </mxCell>
                <mxCell id="180" value="" style="endArrow=none;html=1;fontSize=10;entryX=0;entryY=0.5;entryDx=0;entryDy=0;" parent="1" target="181" edge="1">
                    <mxGeometry width="50" height="50" relative="1" as="geometry">
                        <mxPoint x="260" y="725" as="sourcePoint"/>
                        <mxPoint x="270" y="720" as="targetPoint"/>
                        <Array as="points">
                            <mxPoint x="260" y="725"/>
                        </Array>
                    </mxGeometry>
                </mxCell>
                <mxCell id="181" value="Статус" style="ellipse;whiteSpace=wrap;html=1;fontSize=10;" parent="1" vertex="1">
                    <mxGeometry x="270" y="705" width="80" height="40" as="geometry"/>
                </mxCell>
                <mxCell id="182" value="ID заказа" style="ellipse;whiteSpace=wrap;html=1;fontSize=10;" parent="1" vertex="1">
                    <mxGeometry x="1460" y="580" width="80" height="40" as="geometry"/>
                </mxCell>
                <mxCell id="183" value="" style="endArrow=none;html=1;fontSize=10;entryX=0;entryY=0.5;entryDx=0;entryDy=0;" parent="1" target="182" edge="1">
                    <mxGeometry width="50" height="50" relative="1" as="geometry">
                        <mxPoint x="1450.0000000000002" y="600" as="sourcePoint"/>
                        <mxPoint x="1430" y="655" as="targetPoint"/>
                    </mxGeometry>
                </mxCell>
                <mxCell id="184" value="" style="endArrow=none;html=1;fontSize=10;entryX=0;entryY=0.5;entryDx=0;entryDy=0;" parent="1" target="191" edge="1">
                    <mxGeometry width="50" height="50" relative="1" as="geometry">
                        <mxPoint x="1450.0000000000002" y="700" as="sourcePoint"/>
                        <mxPoint x="1460" y="695" as="targetPoint"/>
                        <Array as="points">
                            <mxPoint x="1450" y="700"/>
                        </Array>
                    </mxGeometry>
                </mxCell>
                <mxCell id="186" value="ID" style="ellipse;whiteSpace=wrap;html=1;align=center;fontStyle=4;fontSize=10;" parent="1" vertex="1">
                    <mxGeometry x="1460" y="530" width="80" height="40" as="geometry"/>
                </mxCell>
                <mxCell id="187" value="" style="line;strokeWidth=1;rotatable=0;dashed=0;labelPosition=right;align=left;verticalAlign=middle;spacingTop=0;spacingLeft=6;points=[];portConstraint=eastwest;fontSize=10;" parent="1" vertex="1">
                    <mxGeometry x="1450" y="545" width="10" height="10" as="geometry"/>
                </mxCell>
                <mxCell id="188" value="" style="endArrow=none;html=1;rounded=0;fontSize=10;exitX=0.095;exitY=0.998;exitDx=0;exitDy=0;exitPerimeter=0;" parent="1" source="253" edge="1">
                    <mxGeometry relative="1" as="geometry">
                        <mxPoint x="1450" y="520" as="sourcePoint"/>
                        <mxPoint x="1450" y="700" as="targetPoint"/>
                    </mxGeometry>
                </mxCell>
                <mxCell id="189" value="Статус" style="ellipse;whiteSpace=wrap;html=1;fontSize=10;" parent="1" vertex="1">
                    <mxGeometry x="1460" y="630" width="80" height="40" as="geometry"/>
                </mxCell>
                <mxCell id="190" value="" style="endArrow=none;html=1;fontSize=10;entryX=0;entryY=0.5;entryDx=0;entryDy=0;" parent="1" target="189" edge="1">
                    <mxGeometry width="50" height="50" relative="1" as="geometry">
                        <mxPoint x="1450.0000000000002" y="650" as="sourcePoint"/>
                        <mxPoint x="1440" y="665" as="targetPoint"/>
                    </mxGeometry>
                </mxCell>
                <mxCell id="191" value="Время обновления" style="ellipse;whiteSpace=wrap;html=1;fontSize=10;" parent="1" vertex="1">
                    <mxGeometry x="1460" y="680" width="80" height="40" as="geometry"/>
                </mxCell>
                <mxCell id="196" value="Отправляет&lt;br&gt;Получает" style="shape=rhombus;perimeter=rhombusPerimeter;whiteSpace=wrap;html=1;align=center;fontSize=10;" parent="1" vertex="1">
                    <mxGeometry x="740" y="610" width="120" height="60" as="geometry"/>
                </mxCell>
                <mxCell id="199" value="" style="edgeStyle=entityRelationEdgeStyle;fontSize=12;html=1;endArrow=ERone;endFill=1;entryX=1;entryY=0.5;entryDx=0;entryDy=0;exitX=0;exitY=0.5;exitDx=0;exitDy=0;" parent="1" source="196" target="76" edge="1">
                    <mxGeometry width="100" height="100" relative="1" as="geometry">
                        <mxPoint x="720" y="810" as="sourcePoint"/>
                        <mxPoint x="820" y="710" as="targetPoint"/>
                    </mxGeometry>
                </mxCell>
                <mxCell id="201" value="Содержит" style="shape=rhombus;perimeter=rhombusPerimeter;whiteSpace=wrap;html=1;align=center;fontSize=10;" parent="1" vertex="1">
                    <mxGeometry x="1080" y="610" width="120" height="60" as="geometry"/>
                </mxCell>
                <mxCell id="202" value="" style="edgeStyle=entityRelationEdgeStyle;fontSize=12;html=1;endArrow=ERone;endFill=1;entryX=1;entryY=0.75;entryDx=0;entryDy=0;exitX=0;exitY=0.5;exitDx=0;exitDy=0;" parent="1" source="201" target="135" edge="1">
                    <mxGeometry width="100" height="100" relative="1" as="geometry">
                        <mxPoint x="1000" y="770" as="sourcePoint"/>
                        <mxPoint x="1100" y="670" as="targetPoint"/>
                    </mxGeometry>
                </mxCell>
                <mxCell id="203" value="" style="edgeStyle=entityRelationEdgeStyle;fontSize=12;html=1;endArrow=ERoneToMany;exitX=1;exitY=0.5;exitDx=0;exitDy=0;entryX=0;entryY=0.5;entryDx=0;entryDy=0;" parent="1" source="201" target="252" edge="1">
                    <mxGeometry width="100" height="100" relative="1" as="geometry">
                        <mxPoint x="1000" y="770" as="sourcePoint"/>
                        <mxPoint x="1260" y="700" as="targetPoint"/>
                    </mxGeometry>
                </mxCell>
                <mxCell id="218" value="Отправляется из&lt;br&gt;Доставляется на" style="shape=rhombus;perimeter=rhombusPerimeter;whiteSpace=wrap;html=1;align=center;fontSize=10;" parent="1" vertex="1">
                    <mxGeometry x="1080" y="330" width="120" height="60" as="geometry"/>
                </mxCell>
                <mxCell id="223" value="" style="edgeStyle=entityRelationEdgeStyle;fontSize=12;html=1;endArrow=ERone;endFill=1;exitX=0;exitY=0.5;exitDx=0;exitDy=0;entryX=1;entryY=0.25;entryDx=0;entryDy=0;" parent="1" source="218" target="135" edge="1">
                    <mxGeometry width="100" height="100" relative="1" as="geometry">
                        <mxPoint x="730" y="430" as="sourcePoint"/>
                        <mxPoint x="980" y="210" as="targetPoint"/>
                    </mxGeometry>
                </mxCell>
                <mxCell id="228" value="" style="edgeStyle=entityRelationEdgeStyle;fontSize=12;html=1;endArrow=ERoneToMany;exitX=1;exitY=0.5;exitDx=0;exitDy=0;entryX=0;entryY=0.75;entryDx=0;entryDy=0;" parent="1" source="196" target="135" edge="1">
                    <mxGeometry width="100" height="100" relative="1" as="geometry">
                        <mxPoint x="1170" y="820" as="sourcePoint"/>
                        <mxPoint x="1270" y="720" as="targetPoint"/>
                    </mxGeometry>
                </mxCell>
                <mxCell id="230" value="" style="edgeStyle=entityRelationEdgeStyle;fontSize=12;html=1;endArrow=ERoneToMany;entryX=0;entryY=0.5;entryDx=0;entryDy=0;exitX=1;exitY=0.5;exitDx=0;exitDy=0;" parent="1" source="218" target="115" edge="1">
                    <mxGeometry width="100" height="100" relative="1" as="geometry">
                        <mxPoint x="1170" y="135" as="sourcePoint"/>
                        <mxPoint x="1330" y="245" as="targetPoint"/>
                    </mxGeometry>
                </mxCell>
                <mxCell id="231" value="" style="endArrow=none;html=1;fontSize=10;entryX=0;entryY=0.5;entryDx=0;entryDy=0;" parent="1" target="232" edge="1">
                    <mxGeometry width="50" height="50" relative="1" as="geometry">
                        <mxPoint x="930.0000000000002" y="950" as="sourcePoint"/>
                        <mxPoint x="940" y="945" as="targetPoint"/>
                        <Array as="points">
                            <mxPoint x="930" y="950"/>
                        </Array>
                    </mxGeometry>
                </mxCell>
                <mxCell id="232" value="Статус" style="ellipse;whiteSpace=wrap;html=1;fontSize=10;" parent="1" vertex="1">
                    <mxGeometry x="940" y="930" width="80" height="40" as="geometry"/>
                </mxCell>
                <mxCell id="233" value="Доставляет" style="shape=rhombus;perimeter=rhombusPerimeter;whiteSpace=wrap;html=1;align=center;fontSize=10;" parent="1" vertex="1">
                    <mxGeometry x="410" y="330" width="120" height="60" as="geometry"/>
                </mxCell>
                <mxCell id="235" value="" style="edgeStyle=entityRelationEdgeStyle;fontSize=12;html=1;endArrow=ERoneToMany;exitX=1;exitY=0.5;exitDx=0;exitDy=0;entryX=0;entryY=0.5;entryDx=0;entryDy=0;" parent="1" source="233" target="263" edge="1">
                    <mxGeometry width="100" height="100" relative="1" as="geometry">
                        <mxPoint x="1110" y="430" as="sourcePoint"/>
                        <mxPoint x="940" y="120" as="targetPoint"/>
                    </mxGeometry>
                </mxCell>
                <mxCell id="236" value="" style="edgeStyle=entityRelationEdgeStyle;fontSize=12;html=1;endArrow=ERone;endFill=1;exitX=0;exitY=0.5;exitDx=0;exitDy=0;entryX=1;entryY=0.5;entryDx=0;entryDy=0;" parent="1" source="233" target="171" edge="1">
                    <mxGeometry width="100" height="100" relative="1" as="geometry">
                        <mxPoint x="1110" y="430" as="sourcePoint"/>
                        <mxPoint x="1210" y="330" as="targetPoint"/>
                    </mxGeometry>
                </mxCell>
                <mxCell id="238" value="Имеет" style="shape=rhombus;perimeter=rhombusPerimeter;whiteSpace=wrap;html=1;align=center;fontSize=10;" parent="1" vertex="1">
                    <mxGeometry x="1080" y="470" width="120" height="60" as="geometry"/>
                </mxCell>
                <mxCell id="239" value="" style="edgeStyle=entityRelationEdgeStyle;fontSize=12;html=1;endArrow=ERone;endFill=1;exitX=0;exitY=0.5;exitDx=0;exitDy=0;entryX=1;entryY=0.5;entryDx=0;entryDy=0;" parent="1" source="238" target="135" edge="1">
                    <mxGeometry width="100" height="100" relative="1" as="geometry">
                        <mxPoint x="1260" y="460" as="sourcePoint"/>
                        <mxPoint x="1360" y="360" as="targetPoint"/>
                    </mxGeometry>
                </mxCell>
                <mxCell id="240" value="" style="edgeStyle=entityRelationEdgeStyle;fontSize=12;html=1;endArrow=ERmany;exitX=1;exitY=0.5;exitDx=0;exitDy=0;entryX=0;entryY=0.5;entryDx=0;entryDy=0;" parent="1" source="238" target="253" edge="1">
                    <mxGeometry width="100" height="100" relative="1" as="geometry">
                        <mxPoint x="1550" y="320" as="sourcePoint"/>
                        <mxPoint x="1440" y="500" as="targetPoint"/>
                    </mxGeometry>
                </mxCell>
                <mxCell id="242" value="m" style="text;html=1;align=center;verticalAlign=middle;resizable=0;points=[];autosize=1;strokeColor=none;fillColor=none;fontSize=10;" parent="1" vertex="1">
                    <mxGeometry x="670" y="330" width="30" height="30" as="geometry"/>
                </mxCell>
                <mxCell id="243" value="m" style="text;html=1;align=center;verticalAlign=middle;resizable=0;points=[];autosize=1;strokeColor=none;fillColor=none;fontSize=10;" parent="1" vertex="1">
                    <mxGeometry x="890" y="510" width="30" height="30" as="geometry"/>
                </mxCell>
                <mxCell id="244" value="m" style="text;html=1;align=center;verticalAlign=middle;resizable=0;points=[];autosize=1;strokeColor=none;fillColor=none;fontSize=10;" parent="1" vertex="1">
                    <mxGeometry x="1230" y="40" width="30" height="30" as="geometry"/>
                </mxCell>
                <mxCell id="245" value="m" style="text;html=1;align=center;verticalAlign=middle;resizable=0;points=[];autosize=1;strokeColor=none;fillColor=none;fontSize=10;" parent="1" vertex="1">
                    <mxGeometry x="1230" y="670" width="30" height="30" as="geometry"/>
                </mxCell>
                <mxCell id="246" value="m" style="text;html=1;align=center;verticalAlign=middle;resizable=0;points=[];autosize=1;strokeColor=none;fillColor=none;fontSize=10;" parent="1" vertex="1">
                    <mxGeometry x="1410" y="470" width="30" height="30" as="geometry"/>
                </mxCell>
                <mxCell id="247" value="1" style="text;html=1;align=center;verticalAlign=middle;resizable=0;points=[];autosize=1;strokeColor=none;fillColor=none;fontSize=10;" parent="1" vertex="1">
                    <mxGeometry x="680" y="670" width="30" height="30" as="geometry"/>
                </mxCell>
                <mxCell id="249" value="1" style="text;html=1;align=center;verticalAlign=middle;resizable=0;points=[];autosize=1;strokeColor=none;fillColor=none;fontSize=10;" parent="1" vertex="1">
                    <mxGeometry x="1020" y="460" width="30" height="30" as="geometry"/>
                </mxCell>
                <mxCell id="250" value="1" style="text;html=1;align=center;verticalAlign=middle;resizable=0;points=[];autosize=1;strokeColor=none;fillColor=none;fontSize=10;" parent="1" vertex="1">
                    <mxGeometry x="1020" y="510" width="30" height="30" as="geometry"/>
                </mxCell>
                <mxCell id="251" value="1" style="text;html=1;align=center;verticalAlign=middle;resizable=0;points=[];autosize=1;strokeColor=none;fillColor=none;fontSize=10;" parent="1" vertex="1">
                    <mxGeometry x="1050" y="480" width="30" height="30" as="geometry"/>
                </mxCell>
                <mxCell id="252" value="Состав Заказа" style="shape=ext;margin=3;double=1;whiteSpace=wrap;html=1;align=center;fontSize=10;" parent="1" vertex="1">
                    <mxGeometry x="1260" y="680" width="100" height="40" as="geometry"/>
                </mxCell>
                <mxCell id="253" value="Статус заказа" style="shape=ext;margin=3;double=1;whiteSpace=wrap;html=1;align=center;fontSize=10;" parent="1" vertex="1">
                    <mxGeometry x="1440" y="480" width="100" height="40" as="geometry"/>
                </mxCell>
                <mxCell id="255" value="" style="endArrow=none;html=1;fontSize=10;entryX=0;entryY=0.5;entryDx=0;entryDy=0;" edge="1" parent="1">
                    <mxGeometry width="50" height="50" relative="1" as="geometry">
                        <mxPoint x="580" y="460" as="sourcePoint"/>
                        <mxPoint x="590" y="460" as="targetPoint"/>
                    </mxGeometry>
                </mxCell>
                <mxCell id="257" value="ID курьера" style="ellipse;whiteSpace=wrap;html=1;align=center;fontStyle=4;fontSize=10;" vertex="1" parent="1">
                    <mxGeometry x="590" y="390" width="80" height="40" as="geometry"/>
                </mxCell>
                <mxCell id="258" value="" style="line;strokeWidth=1;rotatable=0;dashed=0;labelPosition=right;align=left;verticalAlign=middle;spacingTop=0;spacingLeft=6;points=[];portConstraint=eastwest;fontSize=10;" vertex="1" parent="1">
                    <mxGeometry x="580" y="405" width="10" height="10" as="geometry"/>
                </mxCell>
                <mxCell id="259" value="" style="endArrow=none;html=1;rounded=0;fontSize=10;exitX=0.092;exitY=1.006;exitDx=0;exitDy=0;exitPerimeter=0;" edge="1" parent="1" source="263">
                    <mxGeometry relative="1" as="geometry">
                        <mxPoint x="580" y="380" as="sourcePoint"/>
                        <mxPoint x="580" y="510" as="targetPoint"/>
                    </mxGeometry>
                </mxCell>
                <mxCell id="260" value="Время назначения" style="ellipse;whiteSpace=wrap;html=1;fontSize=10;" vertex="1" parent="1">
                    <mxGeometry x="590" y="490" width="80" height="40" as="geometry"/>
                </mxCell>
                <mxCell id="261" value="" style="endArrow=none;html=1;fontSize=10;entryX=0;entryY=0.5;entryDx=0;entryDy=0;" edge="1" parent="1" target="260">
                    <mxGeometry width="50" height="50" relative="1" as="geometry">
                        <mxPoint x="580" y="510" as="sourcePoint"/>
                        <mxPoint x="570" y="525" as="targetPoint"/>
                    </mxGeometry>
                </mxCell>
                <mxCell id="263" value="Заказ-Курьер" style="shape=ext;margin=3;double=1;whiteSpace=wrap;html=1;align=center;fontSize=10;" vertex="1" parent="1">
                    <mxGeometry x="570" y="340" width="100" height="40" as="geometry"/>
                </mxCell>
                <mxCell id="264" value="ID заказа" style="ellipse;whiteSpace=wrap;html=1;align=center;fontStyle=4;fontSize=10;" vertex="1" parent="1">
                    <mxGeometry x="590" y="440" width="80" height="40" as="geometry"/>
                </mxCell>
                <mxCell id="266" value="" style="edgeStyle=entityRelationEdgeStyle;fontSize=12;html=1;endArrow=ERoneToMany;entryX=1;entryY=0.5;entryDx=0;entryDy=0;exitX=0;exitY=0.5;exitDx=0;exitDy=0;" edge="1" parent="1" source="267" target="263">
                    <mxGeometry width="100" height="100" relative="1" as="geometry">
                        <mxPoint x="720" y="360" as="sourcePoint"/>
                        <mxPoint x="1040" y="320" as="targetPoint"/>
                    </mxGeometry>
                </mxCell>
                <mxCell id="267" value="Доставляет" style="shape=rhombus;perimeter=rhombusPerimeter;whiteSpace=wrap;html=1;align=center;" vertex="1" parent="1">
                    <mxGeometry x="740" y="330" width="120" height="60" as="geometry"/>
                </mxCell>
                <mxCell id="268" value="" style="edgeStyle=entityRelationEdgeStyle;fontSize=12;html=1;endArrow=ERone;endFill=1;entryX=0;entryY=0.25;entryDx=0;entryDy=0;exitX=1;exitY=0.5;exitDx=0;exitDy=0;" edge="1" parent="1" source="267" target="135">
                    <mxGeometry width="100" height="100" relative="1" as="geometry">
                        <mxPoint x="770" y="470" as="sourcePoint"/>
                        <mxPoint x="1060" y="320" as="targetPoint"/>
                    </mxGeometry>
                </mxCell>
                <mxCell id="269" value="m" style="text;html=1;align=center;verticalAlign=middle;resizable=0;points=[];autosize=1;strokeColor=none;fillColor=none;fontSize=10;" vertex="1" parent="1">
                    <mxGeometry x="540" y="330" width="30" height="30" as="geometry"/>
                </mxCell>
                <mxCell id="270" value="1" style="text;html=1;align=center;verticalAlign=middle;resizable=0;points=[];autosize=1;strokeColor=none;fillColor=none;fontSize=10;" vertex="1" parent="1">
                    <mxGeometry x="350" y="395" width="30" height="30" as="geometry"/>
                </mxCell>
                <mxCell id="271" value="1" style="text;html=1;align=center;verticalAlign=middle;resizable=0;points=[];autosize=1;strokeColor=none;fillColor=none;fontSize=10;" vertex="1" parent="1">
                    <mxGeometry x="890" y="460" width="30" height="30" as="geometry"/>
                </mxCell>
            </root>
        </mxGraphModel>
    </diagram>
</mxfile>